<svg xmlns="http://www.w3.org/2000/svg" viewBox="0 0 23.81 23.81"><defs><style>.cls-1{fill:#ffcd38;}.cls-2{fill:#e7b835;}.cls-3{fill:#da5b65;}.cls-4{fill:#3c474d;}.cls-5{fill:#d4d2d3;}.cls-6{fill:#efedee;}.cls-7{fill:#49c3e0;}.cls-8{fill:#3a484a;}.cls-9{fill:#465059;}</style></defs><title>Asset 2</title><g id="Layer_2" data-name="Layer 2"><g id="Layer_1-2" data-name="Layer 1"><path class="cls-1" d="M8.2,19.45,7,16.78,4.36,15.61S-1,16.11.15,23.07a.72.72,0,0,0,.6.59C7.7,24.77,8.2,19.45,8.2,19.45Z"/><path class="cls-2" d="M.21,22.32a.42.42,0,0,1-.16,0c0,.25.06.51.1.79a.72.72,0,0,0,.6.59c7,1.11,7.45-4.21,7.45-4.21L8,19C7.35,20.65,5.47,23.17.21,22.32Z"/><path class="cls-3" d="M2.48,21.33a6.06,6.06,0,0,1,1-3.63,4.34,4.34,0,0,1,1.87-1.38l1.54.56.57,1.54a4.37,4.37,0,0,1-1.39,1.87A6.06,6.06,0,0,1,2.48,21.33Z"/><path class="cls-4" d="M6.17,14.35a4.71,4.71,0,0,0-1.51.1.69.69,0,0,0-.3,1.16L8.2,19.45a.69.69,0,0,0,1.16-.3,4.71,4.71,0,0,0,.1-1.51l-1-2.6Z"/><path class="cls-5" d="M12.15,3.61C10.14,4.43,6.49,3.42,2,7l1,2.55,2.6,1L9.88,9.33l3-6.23Z"/><path class="cls-5" d="M20.71,10.88l-3.5.36L13.29,18.3l.88,2.47,2.68,1.09c3.81-4.88,2.35-8.73,3.57-10.62Z"/><path class="cls-6" d="M23.32,1.18A.93.93,0,0,0,22.63.5c-1.53-.37-5.9-1.2-7.83.73L5.51,10.52l3.1,4.69,4.68,3.09L22.58,9C24.51,7.08,23.68,2.71,23.32,1.18Z"/><path class="cls-7" d="M21.93,2.51a.79.79,0,0,0-.63-.63c-2.17-.39-4.47-.38-5.35.5L15.32,3a.74.74,0,0,0,0,1.05l4.42,4.42a.74.74,0,0,0,1.05,0l.64-.63C22.31,7,22.32,4.68,21.93,2.51Z"/><path class="cls-8" d="M16.9,3.82a.37.37,0,0,1-.26-.62L17,2.89a.35.35,0,0,1,.5,0,.36.36,0,0,1,0,.51l-.31.31A.36.36,0,0,1,16.9,3.82Z"/><path class="cls-8" d="M20.35,7.27a.35.35,0,0,1-.25-.1.36.36,0,0,1,0-.51l.31-.31a.36.36,0,0,1,.51.51l-.31.31A.37.37,0,0,1,20.35,7.27Z"/><path class="cls-8" d="M19,6a1.16,1.16,0,0,1-1.16-1.24.36.36,0,0,1,.38-.33.36.36,0,0,1,.34.38.45.45,0,0,0,.47.47A.36.36,0,0,1,19.1,6Z"/><path class="cls-9" d="M13.29,18.3,11.7,19.89,3.92,12.11l1.59-1.59Z"/><path class="cls-4" d="M5.51,10.52,3.92,12.11,1.3,9.48a1.38,1.38,0,0,1,.07-2c.19-.17.39-.33.58-.48Z"/><path class="cls-4" d="M14.33,22.52,11.7,19.89l1.59-1.59,3.56,3.56c-.15.19-.31.39-.48.58A1.39,1.39,0,0,1,14.33,22.52Z"/></g></g></svg>